<?xml version="1.0" encoding="UTF-8"?>
<svg id="Layer_1" xmlns="http://www.w3.org/2000/svg" version="1.1" viewBox="0 0 288 288">
  <!-- Generator: Adobe Illustrator 30.1.0, SVG Export Plug-In . SVG Version: 2.1.1 Build 136)  -->
  <defs>
    <style>
      .st0 {
        fill: #231f20;
      }
    </style>
  </defs>
  <path class="st0" d="M165.84,156.28c-.24,1.88-.81,10.56-.6,11.96.53,3.42.43,11.47,5.69,11.03,10.95-.92,21.27-13.61,27.05-22.37,8.94-13.55,14.45-28.71,17.24-44.71.55-3.15,1.01-6.02,1.29-9.17l.39-4.42c.92-10.47-.86-23.14-4.96-32.89-4.38-10.43-12.92-18.05-23.82-21.22-8.21-2.39-16.51-3.11-25.03-2.47s-15.68,1.9-23.48,4.62c-23.2,8.09-45.17,22.66-61.8,40.86-10.4,11.38-18.63,24.05-24.52,38.4-6.28,15.31-10.03,31.32-11.04,47.86-.13,2.13-.37,4.13-.34,6.14.22,15.07,1.73,30.8,11.07,43.04,7.46,9.78,19.79,13.3,31.65,14.35,12.28,1.09,25.68-1.22,37.71-4.37,19.29-5.05,37.6-12,55.69-20.22l13.6-6.18c12.03-5.47,23.5-11.3,35.15-17.71,9.89-5.44,18.77-11.76,27.73-18.55l14.1-10.68c1.1,1.17.11,1.96-.55,2.79l-4.06,5.1-8.64,10.2c-6.98,8.25-14.96,15.25-24.51,20.46-21.9,11.95-53.78,27.25-77.03,35.7-14.96,5.43-35.74,11.95-51.45,13.17-10.73.84-22.36.34-32.61-3.26-14.81-5.2-26.18-16.36-31.29-31.23-3.79-11.04-5.56-26.65-4.84-38.22l.28-4.47c1.57-25.25,10.55-54.38,25.22-75.23,4.43-6.29,8.96-12.09,14.38-17.49,1.25-1.25,2.17-2.87,3.59-3.86,1.62-1.13,2.64-2.46,4.15-3.81,13.62-12.16,29.07-21.78,46.1-28.53,9.76-3.87,19.45-6.48,29.93-7.17,19.74-1.3,40.71,1.16,54.74,16.55,3.37,3.7,5.62,7.56,7.68,12.11,10.02,22.19,7.29,47.95.4,70.79-4.43,14.68-12.52,29.63-22.58,41.26-5.64,6.52-12.21,12.21-20.78,14.52-1.83.49-4.11.1-5.98.03-3.49-.13-5.96-2.43-8.28-4.82-3.65-3.76-4.92-8.83-5.59-14.06-.88-12.56,1.65-23.46,3.35-36.31-6.91,12.91-11.99,26.12-17.66,39.39-.57,1.33-1.45,3.29-2.99,3.56-3.65.64-6.37-2.95-6.46-6.46-.06-2.41.76-4.41,1.08-6.82,2.35-17.3,5.48-34.16,9.43-51.2,1.18-5.08,2.53-9.66,3.27-14.83-6.97,6.58-11.84,13.73-16.85,21.31-6.31,9.54-12.02,18.95-17.08,29.19-2.54,5.15-5.63,9.89-7.32,15.33l-3.65,11.75c-1.18,3.81-2.58,7.8-5.35,10.87-1.52,1.69-4.32.27-5.62-.95-1.98-1.84-2.64-3.99-2.05-6.85,1.42-6.83,4.41-13.25,7.39-19.6,1.41-3.01,2.1-5.84,2.81-9.07l4.98-22.55c2-9.06,4.16-17.76,4.35-27.04l.26-12.89c1.59-1.37,4.92-1.3,6.45.32,2.85,3.03,2.45,16.21,2.01,19.55l-1.98,15.3c9.11-14.12,17.19-27.46,30.47-37.48,2.46-1.85,4.78-2.06,7.68-1.01s4.52,3.92,4.2,7.21c-1.3,13.43-7.07,28.93-9.19,42.87,4.69-8.21,6.9-13.68,13.13-20.98,2.08-2.43,4.6-3.08,7.45-1.94,6.42,2.57,4.44,8.67,2.69,15.52-2.55,9.96-4.53,19.77-5.85,30Z"/>
</svg>